# xmcd CD database file
#
# Track frame offsets:
#	150
#	28462
#	54002
#	78037
#	109107
#	137075
#	149260
#	165777
#	192205
#	204667
#	269137
#
# Disc length: 4458 seconds
#
# Revision: 2
# Processed by: cddbd v1.4b41PL1 Copyright (c) Steve Scherf et al.
# Submitted via: Feurio! 1.52 - http://www.feurio.com
#
DISCID=9511680b
DTITLE=Imke Frank - "Aus den Fugen"
DYEAR=1900
DGENRE=
TTITLE0=Ligeti: Sonate für Vc solo: Dialogo
TTITLE1=Capriccio
TTITLE2=Berio: Recitativo pour Cello seul
TTITLE3=J.S.Bach: Suite V in c moll: Prélude
TTITLE4=Allemande
TTITLE5=Courante
TTITLE6=Sarabande
TTITLE7=Gavotte I und II
TTITLE8=Gigue
TTITLE9=Holliger: "Trema" für Vc solo
TTITLE10=Demenga: "Aus den Fugen" für Vc solo
EXTD=
EXTT0=
EXTT1=
EXTT2=
EXTT3=
EXTT4=
EXTT5=
EXTT6=
EXTT7=
EXTT8=
EXTT9=
EXTT10=
PLAYORDER=
